<svg xmlns="http://www.w3.org/2000/svg" xmlns:xlink="http://www.w3.org/1999/xlink" preserveAspectRatio="xMidYMid meet" version="1.0" viewBox="-1.3 -0.8 248.6 168.8" zoomAndPan="magnify" style="fill: rgb(0, 0, 0);" original_string_length="1022">
  <linearGradient xmlns:xlink="http://www.w3.org/1999/xlink" gradientUnits="userSpaceOnUse" id="__id137_s53rgrkz1" x1="0" x2="246.099" xlink:actuate="onLoad" xlink:show="other" xlink:type="simple" y1="200" y2="83.637">
    <stop offset="0" style="stop-color: rgb(158, 0, 92);"/>
    <stop offset="1" style="stop-color: rgb(59, 0, 153);"/>
  </linearGradient>
  <path d="M245.9,38.4c-1.7-20.7-18.8-37.2-39.5-38.3c-16-0.9-30.2,7.2-38,19.7c-3.9,6.2-11.6,8.8-18.6,6.5c-5.4-1.8-11.3-2.8-17.3-2.8c-17.6,0-33.3,8.2-43.5,21.1c-5.9,7.5-15.5,10.9-24.9,9.4c-4.1-0.7-8.4-0.9-12.7-0.6C23.5,55.3,1.3,78.2,0.1,106.1C-1.3,137.8,24,164,55.4,164c13,0,24.9-4.5,34.3-11.9c9.5-7.5,22.9-7.1,31.9,1c10.5,9.4,24.6,14.9,40,14.1c28.3-1.5,51.2-24.7,52.3-53c0.1-3.3,0-6.4-0.4-9.6c-1.4-10.7,3.4-21.1,12.6-26.8C239,69.9,247.3,55,245.9,38.4z" style="fill: url(&quot;#__id137_s53rgrkz1&quot;);"/>
</svg>
