<svg xmlns="http://www.w3.org/2000/svg" xmlns:xlink="http://www.w3.org/1999/xlink" preserveAspectRatio="xMidYMid meet" version="1.0" viewBox="0.0 0.0 235.8 203.0" zoomAndPan="magnify" style="fill: rgb(0, 0, 0);" original_string_length="1172">
  <g>
    <linearGradient xmlns:xlink="http://www.w3.org/1999/xlink" gradientUnits="userSpaceOnUse" id="__id143_s53rgrkz1" x1="0" x2="235.575" xlink:actuate="onLoad" xlink:show="other" xlink:type="simple" y1="109.708" y2="109.708">
      <stop offset="0" style="stop-color: rgb(158, 0, 92);"/>
      <stop offset="1" style="stop-color: rgb(158, 0, 92);"/>
    </linearGradient>
    <path d="M182.4,43.6c-2,0-3.9,0.1-5.8,0.3c-13.8,1.6-27.7-2-38.5-10.7c-7.8-6.2-17.7-10-28.5-10c-6.6,0-13,1.4-18.7,4c-6.4,2.9-13.9,2.2-19.7-1.7c-8-5.4-17.7-8.3-28.1-7.7C19.7,19.2,0,38.3,0,61.7c0,27.2,17.5,38.9,30.9,43.9c8.1,3,13,11.4,11.8,20c-0.8,5.9-1.4,12.2-1.1,17.1c1.8,31.7,27.6,57.3,59.4,58.9c27.6,1.4,51.4-15.1,61.2-38.8c3.4-8.2,11.5-13.4,20.4-13.3c0.1,0,0.1,0,0.2,0c29.3,0,53-23.7,52.9-53C235.5,67.4,211.5,43.4,182.4,43.6z" style="fill: url(&quot;#__id143_s53rgrkz1&quot;);"/>
    <circle cx="166.7" cy="16.5" r="16.5" style="fill: url(&quot;#__id143_s53rgrkz1&quot;);"/>
    <circle cx="186.5" cy="175.8" r="8.9" style="fill: url(&quot;::__id143_s53rgrkz1&quot;);"/>
    <circle cx="21.1" cy="123.9" r="11" style="fill: url(&quot;::__id143_s53rgrkz1&quot;);"/>
  </g>
</svg>
