<?xml version="1.0" encoding="utf-8"?>
<!-- Generator: Adobe Illustrator 27.0.0, SVG Export Plug-In . SVG Version: 6.00 Build 0)  -->
<svg version="1.1" id="Camada_1" xmlns="http://www.w3.org/2000/svg" xmlns:xlink="http://www.w3.org/1999/xlink" x="0px" y="0px"
	 viewBox="0 0 500 200" style="enable-background:new 0 0 500 200;" xml:space="preserve">
<style type="text/css">
	.st0{fill:#FFFFFF;}
</style>
<g>
	<path class="st0" d="M8.7,47.07V20.85h113.37v26.22c-3.52-3.62-7.89-7.17-13.11-10.63c-5.22-3.46-10.66-6.42-16.31-8.87
		C87,25.11,81.78,23.72,76.98,23.4v157.35H53.79V23.4c-4.8,0.32-10.02,1.71-15.67,4.16c-5.65,2.45-11.09,5.41-16.31,8.87
		C16.59,39.9,12.22,43.45,8.7,47.07z"/>
	<path class="st0" d="M136.15,180.75h-34.86c3.3-10.87,6.4-21.03,9.27-30.46c2.88-9.43,5.62-18.47,8.24-27.1
		c2.61-8.63,5.22-17.27,7.84-25.9c2.61-8.64,5.33-17.56,8.15-26.78c2.82-9.22,5.84-19.16,9.03-29.82c1.17-3.73,2.66-7.22,4.48-10.47
		c1.81-3.25,4.13-5.89,6.96-7.92c2.82-2.02,6.16-3.04,9.99-3.04c3.94,0,7.3,1.01,10.07,3.04c2.77,2.03,5.09,4.66,6.96,7.92
		c1.86,3.25,3.33,6.74,4.4,10.47c3.2,10.66,6.21,20.6,9.03,29.82c2.82,9.22,5.54,18.15,8.15,26.78c2.61,8.63,5.25,17.27,7.92,25.9
		c2.66,8.63,5.41,17.67,8.24,27.1c2.82,9.44,5.89,19.59,9.19,30.46h-24.47c-3.31-11.09-6.37-21.35-9.19-30.78
		c-2.83-9.43-5.52-18.52-8.08-27.26h-53.41c-0.21,8.85-0.27,17.22-0.16,25.11c0.11,7.89,0.37,14.74,0.8,20.55
		C135.13,174.17,135.61,178.3,136.15,180.75z M134.23,120.31h52.45c-2.45-8.42-4.96-16.76-7.52-25.02
		c-2.56-8.26-5.2-16.87-7.92-25.83c-2.72-8.95-5.73-18.55-9.03-28.78c-0.53-1.81-1.28-3.25-2.24-4.32c-0.96-1.06-2.35-1.6-4.16-1.6
		c-2.88,0-5.44,1.65-7.68,4.96c-2.24,3.31-4.16,7.81-5.76,13.51c-1.6,5.7-2.96,12.21-4.08,19.51c-1.12,7.3-2,15.03-2.64,23.19
		C135.03,104.08,134.55,112.21,134.23,120.31z"/>
	<path class="st0" d="M240.41,20.85h82.99c4.05,0,7.92,0.56,11.59,1.68s6.66,2.96,8.95,5.52c2.29,2.56,3.44,6.02,3.44,10.39
		c0,5.33-1.39,9.81-4.16,13.43c-2.77,3.63-6.32,6.66-10.63,9.11c-4.32,2.45-8.93,4.48-13.83,6.08c-4.9,1.6-9.51,3.01-13.83,4.24
		c-4.32,1.23-7.86,2.45-10.63,3.68c-2.77,1.23-4.16,2.64-4.16,4.24c0,2.56,1.2,4.69,3.6,6.4c2.4,1.71,5.6,3.25,9.59,4.64
		c4,1.39,8.37,2.85,13.11,4.4c4.74,1.55,9.49,3.47,14.23,5.76c4.74,2.29,9.11,5.17,13.11,8.63c4,3.47,7.2,7.81,9.59,13.03
		c2.4,5.22,3.6,11.57,3.6,19.03c0,5.76-1.2,11.06-3.6,15.91c-2.4,4.85-5.65,9.04-9.76,12.55s-8.79,6.26-14.07,8.24
		c-5.28,1.97-10.79,2.96-16.55,2.96h-72.6V20.85z M263.59,158.37h58.53c6.18,0,11.72-0.58,16.63-1.76c4.9-1.17,8.77-3.14,11.59-5.92
		c2.82-2.77,4.24-6.45,4.24-11.03c0-4.48-1.47-8.1-4.4-10.87c-2.93-2.77-6.8-4.96-11.59-6.56c-4.8-1.6-10.07-2.96-15.83-4.08
		c-5.76-1.12-11.54-2.29-17.35-3.52c-5.81-1.22-11.11-2.74-15.91-4.56c-4.8-1.81-8.66-4.21-11.59-7.2c-2.93-2.98-4.4-6.93-4.4-11.83
		c0-3.41,1.2-6.26,3.6-8.55c2.4-2.29,5.52-4.32,9.35-6.08c3.84-1.76,7.86-3.54,12.07-5.36c4.21-1.81,8.23-3.94,12.07-6.4
		c3.84-2.45,6.96-5.54,9.35-9.27c2.4-3.73,3.6-8.37,3.6-13.91c0-5.01-1.41-8.82-4.24-11.43c-2.83-2.61-6.66-4.4-11.51-5.36
		c-4.85-0.96-10.26-1.44-16.23-1.44h-27.98V158.37z"/>
	<path class="st0" d="M398.23,180.75h-34.86c3.3-10.87,6.4-21.03,9.27-30.46c2.88-9.43,5.62-18.47,8.24-27.1
		c2.61-8.63,5.22-17.27,7.84-25.9c2.61-8.64,5.33-17.56,8.16-26.78c2.82-9.22,5.84-19.16,9.03-29.82c1.17-3.73,2.66-7.22,4.48-10.47
		c1.81-3.25,4.13-5.89,6.96-7.92c2.82-2.02,6.16-3.04,9.99-3.04c3.94,0,7.3,1.01,10.07,3.04c2.77,2.03,5.09,4.66,6.96,7.92
		c1.86,3.25,3.33,6.74,4.4,10.47c3.2,10.66,6.21,20.6,9.03,29.82c2.82,9.22,5.54,18.15,8.16,26.78c2.61,8.63,5.25,17.27,7.92,25.9
		c2.66,8.63,5.41,17.67,8.24,27.1c2.82,9.44,5.89,19.59,9.19,30.46h-24.47c-3.31-11.09-6.37-21.35-9.19-30.78
		c-2.83-9.43-5.52-18.52-8.08-27.26h-53.41c-0.21,8.85-0.27,17.22-0.16,25.11c0.11,7.89,0.37,14.74,0.8,20.55
		C397.22,174.17,397.7,178.3,398.23,180.75z M396.31,120.31h52.45c-2.45-8.42-4.96-16.76-7.52-25.02
		c-2.56-8.26-5.2-16.87-7.92-25.83c-2.72-8.95-5.73-18.55-9.03-28.78c-0.53-1.81-1.28-3.25-2.24-4.32c-0.96-1.06-2.35-1.6-4.16-1.6
		c-2.88,0-5.44,1.65-7.68,4.96c-2.24,3.31-4.16,7.81-5.76,13.51c-1.6,5.7-2.96,12.21-4.08,19.51c-1.12,7.3-2,15.03-2.64,23.19
		C397.11,104.08,396.63,112.21,396.31,120.31z"/>
</g>
</svg>

